# xmcd
#
# Track frame offsets:
# 150
# 13213
# 24035
# 43240
# 55510
# 67258
# 85126
# 99694
# 112375
# 122802
# 139789
# 154866
# 164775
# 175980
# 187510
# 196430
# 209087
# 222220
# 231141
# 243319
# 253439
# 263709
# 273909
#
# Disc length: 3846 seconds
#
#
# Revision: 0
# Processed by: cddbd v1.5.1PL2 Copyright (c) Steve Scherf et al.
# Submitted via: FreeRIP 2.945 
#
DISCID=5c0f0417
DTITLE=Choro 1 - Choro Coletânia EPM - vol 2
DYEAR=1900
DGENRE=Choro
TTITLE0=Cochichando
TTITLE1=Cuidado Violão
TTITLE2=Escovado
TTITLE3=Fogo na Roupa
TTITLE4=Gostosinho
TTITLE5=Gotas de Ouro
TTITLE6=Harmonia Servagem
TTITLE7=Homenagem à Velha Guarda
TTITLE8=Intrigas no Boteco do Padilha
TTITLE9=Mistura e Manda
TTITLE10=Murmurando
TTITLE11=O Gato e o Canário
TTITLE12=Orgulhosa
TTITLE13=Pé de Moleque
TTITLE14=Rebolado da Vovó
TTITLE15=Receita de Samba
TTITLE16=Sanfonando
TTITLE17=Serpentina
TTITLE18=Urubatan
TTITLE19=Vem cá, Branquinha
TTITLE20=Visitando Recife
TTITLE21=Vou pra Casa
TTITLE22=Zanznado em Copacabana
EXTD=
EXTT0=Pixinguinha - Intérprete:Sexteto Radamés Gnattali
EXTT1=José Toledo - Intérprete:Altamiro Carrilho
EXTT2=Ernesto nazareth - Intérprete:Rafael Rabello (violão)
EXTT3=Altamiro Carrilho - Intérprete:Altamiro Carrilho(fl) e Orlando Silveira (acord)
EXTT4=Jacob do Bandolim - Intérprete:Joel Nascimento (band), Radamés (piano)
EXTT5=Ernesto nazareth - Intérprete:Jacob do Bandolim
EXTT6=Dante Santoro - Intérprete:Altamiro Carrilho
EXTT7=Sivuca - Intérprete: Pernambuco do Pandeiro e seu conjunto: Manoel Gomes (escurinho) (flauta) e Hermeto Pascoal
EXTT8=Luiz Americano - Intérprete:Os Carioquinhas  part. esp. Zé da Velha (tromb)
EXTT9=Nelson Alves - Intérprete:Cristovão Bastos (pi) e João Lyra (v6)
EXTT10=Fon-Fon - Intérprete:Jacob do Bandolim
EXTT11=Pixinguinha - Intérprete:Benedito Lacerda (flauta) Pixinguinha (st)
EXTT12=Tico-Tico - Intérprete:Tico Tico (c)
EXTT13=Radamés Gnattali- - Intérprete: Radamés
EXTT14=Adauto Silva - Intérprete:Altamiro Carrilho(flautim) e sua Bandinha
EXTT15=Jacob do Bandolim - Intérprete:Jacob do Bandolim
EXTT16=Luiz Gonzaga- - Intérprete: L. Gonzaga (acord)
EXTT17=Nelson Alves - Intérprete:Benedito Lacerda (fl) e Pixinguinha (st)
EXTT18=Pixinguinha - Intérprete: altamiro Carrilho (fl)
EXTT19=Ernesto nazareth - Intérprete:Arthur Moreira Lima (pi)
EXTT20=Canhoto da Paraíba - Intérprete:Canhoto da Paraiba (violão)
EXTT21=Pixinguinha - Intérprete: Os Boêmios Sandoval (st) eug^renio Martins (f) Homero Gelmin (vlin)
EXTT22=Radamés Gnattali - Intérprete:Radamés piano
PLAYORDER=
